<?xml version="1.0" encoding="utf-8"?>
<!-- Generator: Adobe Illustrator 19.1.0, SVG Export Plug-In . SVG Version: 6.00 Build 0)  -->
<svg version="1.1" id="Layer_1" xmlns="http://www.w3.org/2000/svg" xmlns:xlink="http://www.w3.org/1999/xlink" x="0px" y="0px"
	 viewBox="0 0 50 50" style="enable-background:new 0 0 50 50;" xml:space="preserve">
<style type="text/css">
	.st0{fill:#3D344E;}
	.st1{fill:#EEE9F6;}
</style>
<path class="st0" d="M46,50H4c-2.2,0-4-1.8-4-4V4c0-2.2,1.8-4,4-4h42c2.2,0,4,1.8,4,4v42C50,48.2,48.2,50,46,50z"/>
<g>
	<path class="st1" d="M9.4,36.3c-0.3,0.3-0.7,0.3-0.9,0l-1-1c-0.3-0.3-0.3-0.7,0-0.9l7.8-7.8l-7.8-7.8c-0.3-0.3-0.3-0.7,0-0.9l1-1
		c0.3-0.3,0.7-0.3,0.9,0l9.3,9.3c0.3,0.3,0.3,0.7,0,0.9L9.4,36.3z M40.2,37.4c0,0.4-0.3,0.6-0.6,0.6H20.4c-0.4,0-0.6-0.3-0.6-0.6
		v-1.3c0-0.4,0.3-0.6,0.6-0.6h19.1c0.4,0,0.6,0.3,0.6,0.6V37.4z"/>
</g>
</svg>
